<svg xmlns="http://www.w3.org/2000/svg" width="320" height="320" viewBox="0 0 320 320" role="img" aria-label="Avatar femme">
  <rect width="320" height="320" rx="36" fill="#FBEFF7"/>
  <ellipse cx="160" cy="266" rx="104" ry="62" fill="#C86AA8"/>
  <rect x="70" y="228" width="180" height="54" rx="26" fill="#C86AA8"/>
  <path d="M132 174h56v34c0 17-13 30-28 30s-28-13-28-30z" fill="#F09A79"/>
  <circle cx="116" cy="146" r="16" fill="#EB9270"/>
  <circle cx="204" cy="146" r="16" fill="#EB9270"/>
  <path d="M110 136c0-36 22-62 50-62 29 0 50 25 50 62v15c0 38-27 66-50 66s-50-28-50-66z" fill="#F09A79"/>
  <path d="M86 124c0-45 33-74 74-74s74 29 74 74v35h-18v-20c0-20-16-37-36-37h-40c-20 0-36 17-36 37v20H86z" fill="#6E4A58"/>
</svg>
